<svg xmlns="http://www.w3.org/2000/svg" xmlns:xlink="http://www.w3.org/1999/xlink" viewBox="0 0 1000.11 764.37"><defs><style>.cls-1,.cls-11,.cls-12,.cls-49{fill:none;}.cls-2{isolation:isolate;}.cls-3{fill:#f7931e;}.cls-4{fill:#5084da;}.cls-5{fill:#5193f4;}.cls-26,.cls-28,.cls-6{opacity:0.4;}.cls-17,.cls-22,.cls-26,.cls-28,.cls-31,.cls-32,.cls-35,.cls-36,.cls-38,.cls-40,.cls-42,.cls-46,.cls-48,.cls-6,.cls-8{mix-blend-mode:multiply;}.cls-7{opacity:0.23;}.cls-8{fill:#605aca;}.cls-15,.cls-24,.cls-32,.cls-38,.cls-42,.cls-8{opacity:0.5;}.cls-9{fill:#4ca1ff;}.cls-10{fill:#52d2bc;}.cls-11{stroke:#00ad9f;}.cls-11,.cls-12,.cls-49{stroke-linecap:round;stroke-linejoin:round;}.cls-12{stroke:#0b43a4;opacity:0.31;}.cls-13{fill:#4a84d8;}.cls-14{fill:#00ad9f;}.cls-15{mix-blend-mode:screen;}.cls-16{fill:#7ee8d4;}.cls-17{fill:#5a4fd1;opacity:0.37;}.cls-18{fill:#0056ec;}.cls-19{fill:#fff;}.cls-20{fill:#c8eefb;}.cls-21{clip-path:url(#clip-path);}.cls-22{opacity:0.09;}.cls-23,.cls-24{fill:#94ebff;}.cls-23,.cls-31,.cls-35,.cls-36,.cls-48{opacity:0.3;}.cls-25,.cls-26,.cls-48{fill:#f9714e;}.cls-27{fill:#fcee21;}.cls-28,.cls-41{fill:#ffb255;}.cls-29,.cls-36{fill:#ffc2d3;}.cls-30,.cls-32{fill:#2e2c84;}.cls-33{fill:#001f64;}.cls-34,.cls-35{fill:#8fc2ff;}.cls-37,.cls-38{fill:#ff0;}.cls-39{fill:#f9acc8;}.cls-40{opacity:0.1;}.cls-42{fill:#ffc87c;}.cls-43{fill:#4b48b5;}.cls-44{fill:#568edb;}.cls-45{fill:#5e9ce4;}.cls-46{opacity:0.16;}.cls-47{fill:#4e84d9;}.cls-49{stroke:#086356;}</style><clipPath id="clip-path"><circle class="cls-1" cx="510.58" cy="255.04" r="52"/></clipPath></defs><title>loginaset</title><g class="cls-2"><g id="Layer_1" data-name="Layer 1"><path class="cls-3" d="M939.51,274c14,25.46,34.38,49.48,36.14,78.19,2.83,46.11-42.13,80.88-60.52,123.61-22.57,52.46-3.64,114.26-23.62,167.67-14.48,38.7-50,69.62-91.71,79.85-31.27,7.67-64.17,4.2-96.46,4.52-91.67.89-183,32.59-273.41,18.2-44.65-7.11-86.86-25.24-131.72-31.06-53.79-7-116.46,1.46-154.9-35.09-53.7-51.07-13.83-145-54.14-206.24-13-19.73-33.89-35.17-40.89-57.48C40.09,390,53.36,362.26,69.84,340s36.86-42.69,45.79-68.55c8.1-23.48,3.16-49-6.81-71.81C93.54,164.73,136,84.58,220.35,90.59c38.65,2.75,56-42,98.44-54.42C367.33,22,428.27,33.39,464,45.27c36.34,12.08,81.26,18.43,102.1-12.43,29.41-43.57,117.09-50.39,156.46,20.37,14.38,25.84,27.19,46,57.79,44C946.26,86.5,918.69,236.12,939.51,274ZM487.39,34.9c0,5.93,0,16.12,26.16,14.45,8-.51,14.57-4.81,14.57-10.74s-6.52-10.74-14.57-10.74S487.39,25.42,487.39,34.9ZM229.7,63.69A5.44,5.44,0,0,0,228,65.77c-1.69,2.63-4.62,4.3-7.61,5.47-1.75.69-3.64,1.28-4.93,2.6a5.33,5.33,0,0,0,.51,7.68c1.87,1.48,4.52,1.63,6.95,1.51a44,44,0,0,0,25-9.34C257.09,66.37,234.76,61,229.7,63.69ZM204.88,77.37c-3.07-2-7-.85-10.07.72a2.74,2.74,0,0,0-1.53,1.5c-0.4,1.44,1.42,2.47,2.91,2.93,2.32,0.72,4.84,1.43,7.14.66S207.95,79.37,204.88,77.37ZM89.19,266.54c-2.27-6.92-7.63-10.35-15.73-6.41-4.84,2.35-8.21,6.72-11.1,11.1-4.67,7.08-8.68,15.16-7.7,23.47A22.08,22.08,0,0,0,64,310a12.37,12.37,0,0,0,7.25,2.52c2.88-.1,5.47-1.65,7.7-3.38,5.28-4.1,9.34-9.41,13.33-14.66,2.07-2.72,4.22-5.61,4.61-9C97.79,278.47,91.27,272.9,89.19,266.54ZM937.32,479.6c-2.07.84-4.19,1.91-5.38,3.74a10.86,10.86,0,0,0-1.37,4.83,96.3,96.3,0,0,0-.59,10.48c0,3.83.41,8.09,3.36,10.7,4,3.52,10.27,2.28,15.47.83,2.93-.82,6.05-1.76,7.94-4.05a12.64,12.64,0,0,0,2.26-5.94c1.26-7,5.11-17.6.84-21.22S944.76,476.57,937.32,479.6Zm-293,271a12.18,12.18,0,0,0-2.69,3.34,7.35,7.35,0,0,0,3.79,9.74,15.44,15.44,0,0,0,6,.72c17.45-.23,36.21-0.87,50.15-10.89,1.7-1.22,3.46-2.94,3.16-4.95-0.37-2.43-3.38-3.49-5.91-4C681.37,741.19,658.32,737.42,644.3,750.56ZM313.07,723.63c-15.18-2-39.31-4.94-39.31,7.33,0,4.63,21.42,9.09,25,9.95,11,2.65,21.22,6.55,31.93,10.51,19.87,7.34,35.78-2.55,20-13.63C337.73,728.64,325.31,725.28,313.07,723.63Z"/><path class="cls-4" d="M811.76,433.48s35.26-3.22,68.68-16.91c1.06-.43,1.7,6.75,1.7,6.75s4.92-9.6,6.63-10.41c18.09-8.53,34.67-20.42,43.56-36.87,0,0,4.38,100.9-125.32,123.31Z"/><path class="cls-4" d="M854.9,548.59s42.81,22.69,126.51,26.63c0,0-56.95,52-187.24,34.08l4.27-59.19Z"/><path class="cls-5" d="M795,491s19.32-12.34,50.69-23c1.25-.42,3.9,7,3.9,7s4.28-9.63,6.55-10.31c37.47-11.22,88.74-18.55,144-3,0,0-16.73,23.31-51,48.82-1.46,1.09-11.13.23-11.13,0.23s4.06,4.89,2.73,5.82c-32.54,22.63-78.67,45.68-138.92,54.8Z"/><g class="cls-6"><path class="cls-4" d="M1000.11,461.68a481,481,0,0,1-50.4,27.92c-17.28,8.44-35,15.86-53,22.66-9,3.45-18.16,6.33-27.27,9.42l-13.82,4.14c-2.31.68-4.6,1.4-6.92,2l-7,1.76c-18.57,5-37.54,8.4-56.54,11.12l14.1-2.91,7-1.42c2.34-.52,4.66-1.13,7-1.7l14-3.33,13.85-3.83c9.26-2.46,18.35-5.5,27.52-8.28,9-3.16,18.16-6.11,27.08-9.61,18-6.55,35.68-14,53.1-22q13.08-6,25.91-12.47T1000.11,461.68Z"/><path class="cls-4" d="M883,515.77c3.57-3.34,7-6.74,10.5-10.12s6.81-6.86,10.06-10.41,6.36-7.22,9.4-11,5.76-7.73,8.43-11.84a63.59,63.59,0,0,1-6.66,13.11,96.85,96.85,0,0,1-9.11,11.59A103.13,103.13,0,0,1,883,515.77Z"/><path class="cls-4" d="M831.17,531.33A92.42,92.42,0,0,0,842,522.91a84.78,84.78,0,0,0,9.36-9.78,80.35,80.35,0,0,0,7.77-11.07,118.57,118.57,0,0,0,6.21-12.22A51.54,51.54,0,0,1,861,503.09a55.39,55.39,0,0,1-7.54,11.82,57.59,57.59,0,0,1-10.14,9.68A46.33,46.33,0,0,1,831.17,531.33Z"/><path class="cls-4" d="M883,515.77a179.48,179.48,0,0,0,19.84-.1c3.27-.17,6.53-0.56,9.78-1s6.47-1.18,9.82-1.78a37.44,37.44,0,0,1-9.37,3.91,48.53,48.53,0,0,1-10,1.68,54,54,0,0,1-10.17-.29A39.57,39.57,0,0,1,883,515.77Z"/><path class="cls-4" d="M832.22,531.41c4,0.48,8,.87,12,1.28s7.95,0.7,11.92.87,7.93,0.17,11.9.07A119.22,119.22,0,0,0,880,532.43a44.06,44.06,0,0,1-11.74,3.36,70.18,70.18,0,0,1-12.23.55A74.87,74.87,0,0,1,832.22,531.41Z"/></g><g class="cls-7"><path class="cls-8" d="M919,402.26c-3.45,9.47-9.54,17.81-16.45,25.15A109.14,109.14,0,0,1,878.71,446L872,449.62c-2.22,1.21-4.6,2.09-6.9,3.13a124.61,124.61,0,0,1-14.22,5.15c-2.37.86-4.86,1.31-7.3,1.93l-7.34,1.74c-5,.78-9.94,1.51-14.91,2.13,4.87-1.25,9.77-2.24,14.6-3.46l7.18-2.11c2.38-.73,4.81-1.3,7.11-2.27,4.63-1.83,9.39-3.29,13.83-5.53,2.23-1.07,4.58-1.92,6.74-3.14l6.52-3.56A126.74,126.74,0,0,0,901,425.91a73.83,73.83,0,0,0,5.18-5.34c0.82-.93,1.67-1.84,2.46-2.79l2.3-2.93A72.27,72.27,0,0,0,919,402.26Z"/></g><path class="cls-9" d="M954.07,582.34c-5.86,1.13-11.8,1.82-17.73,2.52s-11.91,1-17.88,1.31a306.09,306.09,0,0,1-35.88-.51c-6-.51-11.92-1.19-17.84-2.14A162.45,162.45,0,0,1,847.11,580c-11.59-3-23-7.19-33.19-13.43a130.86,130.86,0,0,0,16.54,6.66,160.76,160.76,0,0,0,17.15,4.69,250.66,250.66,0,0,0,35.19,5c11.82,1,23.71,1.27,35.6,1.15S942.18,583.36,954.07,582.34Z"/><path class="cls-9" d="M898,603.26A44.82,44.82,0,0,1,875,598.73a35.34,35.34,0,0,1-9.58-7.1,26.75,26.75,0,0,1-5.9-10.18,44,44,0,0,0,7.42,8.62,47.46,47.46,0,0,0,9.31,6.17,72.57,72.57,0,0,0,10.5,4.17A111.17,111.17,0,0,0,898,603.26Z"/><path class="cls-9" d="M866.76,605.11a44.83,44.83,0,0,1-21.39-9.38,35.35,35.35,0,0,1-7.81-9A26.76,26.76,0,0,1,834,575.51a44,44,0,0,0,5.37,10,47.49,47.49,0,0,0,7.76,8,72.63,72.63,0,0,0,9.34,6.35A111.13,111.13,0,0,0,866.76,605.11Z"/><path class="cls-10" d="M524.67,690.41A69.62,69.62,0,0,0,472,666.77c-14.68.19-29.09,5.07-43.73,4.17a55.9,55.9,0,0,1-52-63.85c1.7-11.6,7.76-23.25,18.27-28.44,5.72-2.82,12.34-3.53,18.7-3a52.66,52.66,0,0,1,16.8,4.49c12.15,5.39,22.72,14.89,31.16,25.39,7.67,9.54,25.18,23.58,37,32.64,6.94,5.29,11.95,8.87,11.95,8.87C518.52,654.8,519,680.58,524.67,690.41Z"/><path class="cls-11" d="M396.08,611.24C433,621.74,473.7,636.63,502.5,662"/><path class="cls-5" d="M633.76,606c-0.54,6.13-1.8,12.39-4.77,18a40.45,40.45,0,0,1-8,10.18,61.36,61.36,0,0,1-5.12,4.33,74.54,74.54,0,0,1-22.39,11.74c-11.53,3.67-23.88,4.35-34.48,10.85a41.93,41.93,0,0,0-17.29,21.65l0-10.33c1.13-11.44,2.29-23.08,6.55-34a97,97,0,0,1,11.07-19.95,138.17,138.17,0,0,1,24.13-27.13c7.45-6.28,16-11.61,25.08-13s18.76,2,22.93,10C634.12,593.53,634.32,599.9,633.76,606Z"/><path class="cls-12" d="M548.09,662.78a85.69,85.69,0,0,1,31.35-37.84c8.51-5.59,17.85-9.41,26.54-14.65s17.06-12.36,21.14-21.91"/><path class="cls-10" d="M533.9,672.18c16.22-16.1,39.24-23.47,61.86-26.71,18.87-2.71,38.69-2.81,56.33,4.4,5.53,2.26,11,5.39,14.25,10.39s3.73,12.21-.26,16.65c-3.37,3.75-8.84,4.66-13.88,4.84-16.57.6-32.78-4.22-49-7.62-27.9-5.85-58.27-7.26-83.63,5.75"/><path class="cls-11" d="M554.13,663.72c33.58-14.16,82.08-9.6,103.23,5"/><path class="cls-13" d="M157,499c-15.17-7.29-22.44-26.72-34.91-30.89-15.45-5.34-19.78,11.92-44.76,7.65-21-3.58-27.33-27.16-62.38-19.86C4.22,458.15-2.88,467.19,1.14,478c3,10.8,17.87,17.63,26.72,23.14,7.85,4.43,14.79,6.81,19.44,15l0.14,0.27c3.13,6.7,1.88,12.67,9.19,17.57,17.12,12.52,38.44-7.36,57.91-6.78,13.73,0.41,13.35,14.67,29.86,18.8,16.35,4.09,11-10.55,45.3,2.74a2.4,2.4,0,0,0,3.1-1.37h0a2.4,2.4,0,0,0-.5-2.51C168.28,519.82,179.31,509.76,157,499Z"/><path class="cls-14" d="M157,499c-15.17-7.29-22.44-26.72-34.91-30.89-15.45-5.34-19.78,11.92-44.76,7.65-21-3.58-27.33-27.16-62.38-19.86C4.22,458.15-2.88,467.19,1.14,478c3,10.8,17.87,17.63,26.72,23.14,7.85,4.43,14.79,6.81,19.44,15l0.14,0.27c3.13,6.7,1.88,12.67,9.19,17.57,17.12,12.52,38.44-7.36,57.91-6.78,13.73,0.41,13.35,14.67,29.86,18.8,16.35,4.09,11-10.55,45.3,2.74a2.4,2.4,0,0,0,3.1-1.37h0a2.4,2.4,0,0,0-.5-2.51C168.28,519.82,179.31,509.76,157,499Z"/><g class="cls-15"><path class="cls-9" d="M176.33,532.29c-10.82-5.42-17.59-15.9-27.37-22.71-4.5-3.14-9.7-5.55-15.26-5.73-6.27-.2-12.57,3-18.76.91-4.9-1.65-8.46-5.71-13-8-5.67-2.88-10.73-.53-16.63-0.18-11.44.67-20.2-8.74-28.73-14.94a62.66,62.66,0,0,0-37.47-11.89c-0.37,0-.21,1,0.21,1a62,62,0,0,1,35.53,10.67c8.27,5.65,15.89,14.28,26.23,15.94,6,1,11.83-2.33,17.66-.87,5,1.26,8.67,5.31,13,7.8,5.17,3,10.23,2.13,15.86,1.16a25.89,25.89,0,0,1,18.12,3.11c11.49,6.57,18.55,18.71,30.47,24.68,0.46,0.23.44-.74,0.11-0.91h0Z"/></g><path class="cls-16" d="M304.68,601c-49.92,5.28-57.9,9.59-69.87,4.41-15.25-6.59-31.28-5-46.65-11.26s-32.07-11.12-48.47-8.45c-5.18.84-10.94,2.95-11.66,9a10,10,0,0,0,1.93,6.9c3.61,5,9.51,6.73,15.16,8.29l18.87,5.2c6.14,1.69,5.75,10.73-.56,11.64l-0.16,0c-5.29.72-10.64-.33-15.85-1.48-11.33-2.51-22.69-5.56-34.29-5.58-14,0-28.93,5.05-35.88,18.15a24.09,24.09,0,0,0-2.51,15.22c2.45,14.49,16,19.32,28,18.23,8.45-.76,16.43-4,24.41-6.91,19.48-7,36.16.73,56.87,1.26C241.19,667.21,304.68,601,304.68,601Z"/><path class="cls-11" d="M90.25,646.72c35.54-4.06,71.34-8.17,105.45-19,10-3.17,22.89-4,51.12-24.88"/><path class="cls-16" d="M147.82,440.6a20.08,20.08,0,0,0,3.72,2.3c6.1,3,13.09,3.42,17.94,8.9,3.24,3.44,5,8.06,7.42,12.16a22.12,22.12,0,0,0,1.66,2.6c7.5,10.29,14.89,11.48,22.78,11.31,3.24-.08,6.59-0.39,10-0.38a33.39,33.39,0,0,1,16.94,4,46.18,46.18,0,0,1,12,9.78,2.52,2.52,0,0,0,3.19.21,2.72,2.72,0,0,0,1.24-2.76c-2.11-9.5-6.24-15.73-11.22-20.42-14-13.23-34.62-14.28-35.87-41.59-0.26-5.85,1-10,0-14.17a14.72,14.72,0,0,0-3.58-6.55c-4.23-4.56-10.31-6.57-15.72-10.21-14.66-10.46-7.67-27.58-9-43.86-0.87-13.29-12.83-21.95-22.6-29.47-12.22-9-12.19-25.21-20.44-37.27s-28.72-16.92-39.62-.71c-11.57,16.18-5.22,36.41-1.89,52.83a38.09,38.09,0,0,0,4.38,11.57c6.1,10.65,16.57,18.24,25.62,27.26A64.81,64.81,0,0,1,128.37,395a55.69,55.69,0,0,1,4.18,13.24c0.2,1.09.41,2.18,0.62,3.26C135.29,422.9,137.77,433,147.82,440.6Z"/><g class="cls-15"><path class="cls-9" d="M96.17,284.77c0.32,8.2.66,16.54,2.94,24.47a38.49,38.49,0,0,0,11.05,17.84c5.34,5,11.56,9,16.24,14.7a27.44,27.44,0,0,1,5.47,11.12c0.8,3.17,1.49,6.55,3.52,9.21,2.33,3,6.07,4.35,9.06,6.56a26,26,0,0,1,7,8.33c3.4,6.06,5.25,12.83,8.32,19a35.15,35.15,0,0,0,5,7.75c2.8,3.17,6.87,5.2,8.92,9s2.17,8.61,2.65,12.93A40.1,40.1,0,0,0,179,436.5c7.36,18.15,26.22,27.15,42.85,35,0.46,0.22.44-.75,0.11-0.91-15.62-7.35-33-15.5-41.21-31.71A37.22,37.22,0,0,1,177,426.24c-0.41-3.6-.55-7.27-1.59-10.76-2.07-7-9-9.88-12.83-15.73-6.88-10.57-7.92-25.47-19.25-32.82-4-2.61-7.82-4.38-9.55-9.22-1.24-3.48-1.66-7.2-3.22-10.58-2.65-5.76-7.43-10.07-12.21-14.06-6.84-5.71-13.68-11.13-17.18-19.61-3.71-9-4.06-19-4.43-28.55,0-.51-0.64-0.81-0.61-0.14h0Z"/></g><path class="cls-17" d="M211.38,477.49a33.39,33.39,0,0,1,16.94,4c0.54-8.38,3.36-10.12,5.24-13.19-14-13.23-34.62-14.28-35.87-41.59-0.26-5.85,1-10,0-14.17-4.17,8.76-11.65,10.55-11.07,19.5,0.51,9.22,12.31,17.76,14.42,29.4C202.82,471,206.37,473.49,211.38,477.49Z"/><path class="cls-4" d="M346.67,615.13c-9.43-3.72-22-5.25-28.07,2.89-5.06,6.81-2.44,16.47,1.06,24.21,3,6.53,6.7,13.17,12.93,16.72,4.25,2.42,9.24,3.15,14.1,3.73A337.93,337.93,0,0,0,387.55,665c15.83,0,35,6.42,48.09,16.29C418.84,650.1,378.41,627.67,346.67,615.13Z"/><path class="cls-12" d="M330.13,635.44c12,0.51,24.12,1.35,35.64,4.76,11.78,3.48,57.1,24.28,64.19,33.14"/><path class="cls-16" d="M807.46,382.86a19.22,19.22,0,0,0-.39,4.16c0,6.51,2.64,12.67,0,19.15-1.57,4.24-4.78,7.71-7.26,11.53a21.14,21.14,0,0,0-1.52,2.53c-5.62,10.81-3.5,17.64,0,24.33,1.45,2.74,3.14,5.48,4.6,8.44a31.94,31.94,0,0,1,3.78,16.21,44.17,44.17,0,0,1-3.26,14.47,2.41,2.41,0,0,0,1.18,2.82,2.61,2.61,0,0,0,2.9-.11c7.24-5.85,10.82-12,12.72-18.3,5.38-17.61-2.5-35.74,20.37-48.44,4.9-2.72,9-3.42,12.16-6a14.08,14.08,0,0,0,4.09-5.85c2.1-5.56,1.24-11.63,2.06-17.82,2.72-17,20.36-18.31,33.75-26.36,11-6.4,13.34-20.33,15.63-31.9,2.5-14.3,16.41-21.17,23.23-33.37s2.28-31.8-16.25-34.24c-18.79-3-33.42,11-46.06,20.86a36.44,36.44,0,0,0-8,8.68c-6.53,9.76-8.58,22-12.46,33.55a62,62,0,0,1-10.46,19.58,53.26,53.26,0,0,1-9.57,9.22c-0.85.63-1.69,1.28-2.53,1.92C817.29,364.58,809.66,371,807.46,382.86Z"/><g class="cls-15"><path class="cls-9" d="M918.87,272.12c-6.74,3.68-13.59,7.43-19.32,12.61A36.75,36.75,0,0,0,888.79,302c-2.06,6.95-2.87,14.35-6,20.93a27,27,0,0,1-7.09,8.87c-2.47,2.12-5.18,4.26-6.44,7.37-1.46,3.6-.82,7.67-1.79,11.39a26.89,26.89,0,0,1-4.31,8.74c-3.79,5.32-8.7,9.72-12.6,15a31.71,31.71,0,0,0-4.49,8c-1.39,3.79-1.46,7.94-4,11.24-2.38,3-5.91,5-9.12,7a39.18,39.18,0,0,0-8.33,6.79c-12.66,14-12.33,34.26-12,52,0,0.51.63,0.81,0.61,0.14-0.36-16.92-.74-35.91,10.53-49.82a36.1,36.1,0,0,1,8.56-7.56c3-1.92,6.14-3.63,8.7-6.11a16.16,16.16,0,0,0,4.38-8.57,30,30,0,0,1,3.77-9.57c6.47-10.31,18.33-17.53,19.51-30.58a29.29,29.29,0,0,1,.84-6.58,13.55,13.55,0,0,1,3.93-5.6c2.4-2.23,5.07-4.15,7.08-6.78,4.15-5.42,5.59-12.29,7.11-18.8,1.94-8.32,4.46-16,10.64-22.14,6-6,13.58-10.14,21-14.18,0.33-.18,0-1.13-0.36-0.91h0Z"/></g><path class="cls-13" d="M752.94,643.31c14.37,8.11,20.23,27.57,32.16,32.45,14.77,6.21,20.11-10.38,44.27-4.61,20.27,4.85,25,28.32,59.73,23.44,10.61-1.49,18.14-9.88,14.9-20.75-2.25-10.75-16.35-18.39-24.65-24.35-7.39-4.84-14-7.61-18-16l-0.12-.27c-2.63-6.75-1-12.51-7.86-17.77-15.93-13.35-38.06,4.73-57.07,2.91-13.4-1.28-12.11-15.21-28-20.3-15.73-5-11.43,9.61-44.12-5.6a2.35,2.35,0,0,0-3.12,1.14h0a2.35,2.35,0,0,0,.33,2.49C743.22,622.25,731.79,631.38,752.94,643.31Z"/><path class="cls-14" d="M752.94,643.31c14.37,8.11,20.23,27.57,32.16,32.45,14.77,6.21,20.11-10.38,44.27-4.61,20.27,4.85,25,28.32,59.73,23.44,10.61-1.49,18.14-9.88,14.9-20.75-2.25-10.75-16.35-18.39-24.65-24.35-7.39-4.84-14-7.61-18-16l-0.12-.27c-2.63-6.75-1-12.51-7.86-17.77-15.93-13.35-38.06,4.73-57.07,2.91-13.4-1.28-12.11-15.21-28-20.3-15.73-5-11.43,9.61-44.12-5.6a2.35,2.35,0,0,0-3.12,1.14h0a2.35,2.35,0,0,0,.33,2.49C743.22,622.25,731.79,631.38,752.94,643.31Z"/><g class="cls-15"><path class="cls-9" d="M736.17,609.55c10.23,6,16.17,16.68,25.31,24,4.1,3.27,8.89,5.92,14.17,6.54,6.24,0.74,12.72-2.12,18.75.36,4.7,1.93,7.93,6.13,12.24,8.69,5,3,9.88,1.49,15.35,1.26,11.5-.49,19.73,9.47,27.76,16.2a61.48,61.48,0,0,0,36.09,14.26c0.45,0,.32-1-0.05-1A60.84,60.84,0,0,1,852,667.4c-7.86-6.08-14.82-15.22-25-17.53-5.76-1.31-11.72,1.52-17.33-.28-4.81-1.55-8.14-5.76-12.25-8.47-4.71-3.11-9.6-2.78-15-2.19A25.66,25.66,0,0,1,764.83,635c-11-7.11-17.16-19.65-28.55-26.32-0.43-.25-0.43.72-0.11,0.91h0Z"/></g><path class="cls-4" d="M239.57,604s-62.65-13.7-110.84-8.55c-1.52.16,0.33-9.33,0.33-9.33s-9.93,10.54-12.43,10.94c-26.5,4.24-52.32,13.36-69.93,31.25,0,0,32.05-131.69,207.61-112.11Z"/><path class="cls-5" d="M276,611s-28.07-12.6-63.11-40c-1.4-1.09,5-9.5,5-9.5s-14,2.28-16.38.24C161.29,528,115.34,475.84,92.2,402.4c0,0,38.46,1.63,92.29,21.28,2.29,0.84,8.45,12.32,8.45,12.32s2.5-8.16,4.53-7.34c49.33,19.87,109.14,54.68,163.73,115.59Z"/><g class="cls-6"><path class="cls-4" d="M92.2,404.19c23.57,10.45,46.27,22.82,68.43,36s43.59,27.66,64.46,42.85c10.48,7.54,20.47,15.73,30.63,23.68l14.81,12.46c2.46,2.09,5,4.13,7.38,6.26L285,532c19.31,17.14,37.06,36,54.08,55.27l-13.64-13.69-6.79-6.86c-2.3-2.25-4.7-4.4-7-6.6l-14-13.24-14.5-12.73c-9.58-8.58-19.68-16.55-29.54-24.79-10.2-7.83-20.22-15.88-30.71-23.32-20.6-15.38-41.95-29.75-63.74-43.42q-16.33-10.28-33.06-19.9T92.2,404.19Z"/><path class="cls-4" d="M239.07,495.8c-6.38-1.55-12.74-2.94-19.08-4.34s-12.71-2.6-19.09-3.63-12.79-1.83-19.23-2.47-12.91-.77-19.49-0.75a85.33,85.33,0,0,1,19.62-2.17,130,130,0,0,1,19.71,1.7A138.41,138.41,0,0,1,239.07,495.8Z"/><path class="cls-4" d="M177.43,453.59c-4.54-.27-9.06-0.43-13.55-0.6s-9-.21-13.47-0.12-9,.33-13.42.69-8.9,1.07-13.39,1.89a59.16,59.16,0,0,1,13.12-3.9,90.09,90.09,0,0,1,13.65-1.27A96,96,0,0,1,177.43,453.59Z"/><path class="cls-4" d="M294.68,542.54a124,124,0,0,0-17.4-5.93,113.88,113.88,0,0,0-17.86-3.31,107.8,107.8,0,0,0-18.14-.57,159.14,159.14,0,0,0-18.29,2,69.14,69.14,0,0,1,18-4.93,74.3,74.3,0,0,1,18.82-.24,77.28,77.28,0,0,1,18.32,4.26A62.18,62.18,0,0,1,294.68,542.54Z"/><path class="cls-4" d="M239.07,495.8a240.87,240.87,0,0,0-14.71-22.19c-2.6-3.55-5.43-6.92-8.35-10.22s-6.08-6.4-9.22-9.71a50.23,50.23,0,0,1,11.28,7.63,65.08,65.08,0,0,1,9.28,10A72.51,72.51,0,0,1,234.51,483,53.14,53.14,0,0,1,239.07,495.8Z"/><path class="cls-4" d="M294,541.3c-2.42-4.88-4.93-9.64-7.39-14.41s-5.07-9.43-7.79-14-5.64-9-8.68-13.41A160,160,0,0,0,260,487a59.15,59.15,0,0,1,12.41,10.7A94.2,94.2,0,0,1,282,511,100.47,100.47,0,0,1,294,541.3Z"/></g><g class="cls-15"><path class="cls-9" d="M73.68,599.44c8-10.91,19-19.39,30.6-26.27A146.44,146.44,0,0,1,142,558.07l10-2.11c3.31-.74,6.71-1,10.07-1.45a167.17,167.17,0,0,1,20.26-1.33c3.38-.22,6.76.13,10.13,0.24l10.11,0.49c6.7,0.85,13.38,1.77,20,2.82-6.74-.21-13.42-0.76-20.11-1l-10,0c-3.34.06-6.68-.12-10,0.27-6.65.62-13.33,0.74-19.89,2-3.28.55-6.62,0.77-9.86,1.53l-9.74,2.15a170.13,170.13,0,0,0-37.21,14A99.06,99.06,0,0,0,97,580.62c-1.4.9-2.84,1.74-4.22,2.68l-4.06,2.92A97,97,0,0,0,73.68,599.44Z"/></g><g class="cls-15"><path class="cls-9" d="M182,554.85c-3.65,5.82-7.21,11.33-10.18,17.15a68.87,68.87,0,0,0-6.61,18.54c-1.62-6.79.15-14.1,3.28-20.25a46,46,0,0,1,5.81-8.59A34.66,34.66,0,0,1,182,554.85Z"/></g><rect class="cls-18" x="458.7" y="597.14" width="103.76" height="71.36"/><rect class="cls-8" x="458.7" y="597.14" width="103.76" height="25.86"/><path class="cls-18" d="M615.89,667.38H405.28a12,12,0,1,0,0,24.09H615.89a12,12,0,0,0,12-12h0A12,12,0,0,0,615.89,667.38Z"/><path class="cls-8" d="M627.94,679.43a12,12,0,0,1-12,12H405.28a12,12,0,0,1-12-12,10.61,10.61,0,0,1,.38-2.92,12,12,0,0,0,11.67,9.13H615.89a12,12,0,0,0,11.67-9.13A10.6,10.6,0,0,1,627.94,679.43Z"/><rect class="cls-19" x="178.54" y="163.53" width="664.08" height="443.56" rx="7.38" ry="7.38"/><path class="cls-18" d="M835.24,168.8a2.11,2.11,0,0,1,2.11,2.11v428.8a2.11,2.11,0,0,1-2.11,2.11H185.93a2.11,2.11,0,0,1-2.11-2.11V170.91a2.11,2.11,0,0,1,2.11-2.11H835.24m0-10.55H185.93a12.66,12.66,0,0,0-12.66,12.66v428.8a12.66,12.66,0,0,0,12.66,12.66H835.24a12.66,12.66,0,0,0,12.66-12.66V170.91a12.66,12.66,0,0,0-12.66-12.66h0Z"/><path class="cls-18" d="M847.9,598.84V556.92H173.27v41.92a14.28,14.28,0,0,0,14.28,14.28H833.61A14.28,14.28,0,0,0,847.9,598.84Z"/><circle class="cls-20" cx="510.58" cy="255.04" r="52"/><g class="cls-21"><path class="cls-4" d="M530.68,243.18a20.1,20.1,0,1,1-20.1-20.1A20.1,20.1,0,0,1,530.68,243.18Zm10.23,87.67V279.5A11.45,11.45,0,0,0,529.46,268H491.71a11.45,11.45,0,0,0-11.45,11.45v51.35a3.17,3.17,0,0,0,3.17,3.17h54.3A3.17,3.17,0,0,0,540.91,330.84Z"/></g><path class="cls-20" d="M635,366.2H386.16a20.58,20.58,0,0,1-20.58-20.58h0A20.58,20.58,0,0,1,386.16,325H635a20.58,20.58,0,0,1,20.58,20.58h0A20.58,20.58,0,0,1,635,366.2Z"/><path class="cls-4" d="M626.36,351H394.8a5.37,5.37,0,0,1-5.37-5.37h0a5.37,5.37,0,0,1,5.37-5.37H626.36a5.37,5.37,0,0,1,5.37,5.37h0A5.37,5.37,0,0,1,626.36,351Z"/><path class="cls-20" d="M635.2,440.21H386.36a20.58,20.58,0,0,1-20.58-20.58h0a20.58,20.58,0,0,1,20.58-20.58H635.2a20.58,20.58,0,0,1,20.58,20.58h0A20.58,20.58,0,0,1,635.2,440.21Z"/><path class="cls-4" d="M392.73,425.37h0a5.37,5.37,0,0,1-5.37-5.37h0a5.37,5.37,0,0,1,5.37-5.37h0A5.37,5.37,0,0,1,398.1,420h0A5.37,5.37,0,0,1,392.73,425.37ZM414.08,420h0a5.37,5.37,0,0,0-5.37-5.37h0a5.37,5.37,0,0,0-5.37,5.37h0a5.37,5.37,0,0,0,5.37,5.37h0A5.37,5.37,0,0,0,414.08,420Zm16,0h0a5.37,5.37,0,0,0-5.37-5.37h0a5.37,5.37,0,0,0-5.37,5.37h0a5.37,5.37,0,0,0,5.37,5.37h0A5.37,5.37,0,0,0,430.06,420Zm16,0h0a5.37,5.37,0,0,0-5.37-5.37h0a5.37,5.37,0,0,0-5.37,5.37h0a5.37,5.37,0,0,0,5.37,5.37h0A5.37,5.37,0,0,0,446,420Zm16,0h0a5.37,5.37,0,0,0-5.37-5.37h0a5.37,5.37,0,0,0-5.37,5.37h0a5.37,5.37,0,0,0,5.37,5.37h0A5.37,5.37,0,0,0,462,420Zm16,0h0a5.37,5.37,0,0,0-5.37-5.37h0a5.37,5.37,0,0,0-5.37,5.37h0a5.37,5.37,0,0,0,5.37,5.37h0A5.37,5.37,0,0,0,478,420Zm16,0h0a5.37,5.37,0,0,0-5.37-5.37h0a5.37,5.37,0,0,0-5.37,5.37h0a5.37,5.37,0,0,0,5.37,5.37h0A5.37,5.37,0,0,0,494,420Z"/><path class="cls-4" d="M545.92,517.74H475.24a20.58,20.58,0,0,1-20.58-20.58h0a20.58,20.58,0,0,1,20.58-20.58h70.68a20.58,20.58,0,0,1,20.58,20.58h0A20.58,20.58,0,0,1,545.92,517.74Z"/><path class="cls-22" d="M771.47,612V588.46a14,14,0,0,0-14-14h-1.22v-21.8a58.11,58.11,0,0,0-116.22,0v21.8h-1.22a14,14,0,0,0-14,14V612H771.47ZM659.22,552.65a38.91,38.91,0,0,1,77.81,0v21.8H659.22v-21.8Z"/><path class="cls-22" d="M798.93,391.56a37.08,37.08,0,0,0-21-8.33c0-.77,0-1.54,0-2.52,4.3-.69,8-4.45,10.12-9.52,5.8-5.59,9.74-12.51,7.84-21.22a1.69,1.69,0,0,1,.21-1.28c-2.49-4.46-7.1-6.61-12.2-11.23-17.15-15.54-37.54,6.05-29.82,14.95a16,16,0,0,1,2.16,4.9c0,0.05,0,.09,0,0.15-0.37,1.67,0,4.48,1.26,5.87a25.26,25.26,0,0,1,.15,2.63,1.56,1.56,0,0,1,.1.25,10.49,10.49,0,0,0,1.44,3.66c1,4.15,3.51,8.51,8.74,10.26,0.41,0.14.82,0.27,1.27,0.37a6.32,6.32,0,0,1,.18,2.8,33.68,33.68,0,0,0-13.73,4.59c-32.79,15.85-65.21,66.93-61.64,78.19s12.64,24.44,18.73,33.25l1-.17,1.47,5.09a3.51,3.51,0,0,0,4.56,3c1.45-.07,3-0.19,4.1-1.17a4.37,4.37,0,0,0,1.2-2.18,9.26,9.26,0,0,0-1.09-6.57l0.71-.13S710.44,476.06,711,463.16c0.19-4.71,11.22-15.82,20.2-24.09-0.21,2.87-.32,5.8-0.32,8.76l-4.3,102.8s3.71,0.73,9.66,1.68L742,613.71h23.24l0.55-57.83,0.91,0.07,0.81,0.06,3.44,0.22,1.17,0.07,1.25,0.07,2.28,57.35h22.91l4.69-58.41,0.09,0c0.95-.15,1.88-0.32,2.78-0.5l1.18-.26q1.14-.25,2.23-0.54l1.17-.32c0.73-.21,1.43-0.44,2.12-0.68l1-.33c1-.37,1.91-0.76,2.79-1.18l-0.47-111.2c0-2.4-.07-4.73-0.21-7,0-.17,0-0.34,0-0.51q-0.2-3.18-.58-6.19l-0.08-.6c0-.18,0-0.36-0.07-0.54,4.53,0.9,10.43,2,18.15,3.28a32.89,32.89,0,0,0,14.56-.9v-22.5C828.62,407.5,807.13,396.51,798.93,391.56Z"/><circle class="cls-23" cx="485.93" cy="417.93" r="35.74"/><circle class="cls-24" cx="485.93" cy="417.93" r="19.4"/><path class="cls-25" d="M683.63,494.54a58.18,58.18,0,0,0-58.11,58.11v55.88H741.74V552.65A58.18,58.18,0,0,0,683.63,494.54Zm-38.91,94.79V552.65a38.91,38.91,0,0,1,77.81,0v36.68H644.72Z"/><path class="cls-26" d="M683.63,506a46.45,46.45,0,0,0-46.4,46.4V597H730V552.43A46.45,46.45,0,0,0,683.63,506Zm38.91,83.3H644.72V552.65a38.91,38.91,0,0,1,77.81,0v36.68Z"/><rect class="cls-27" x="610.29" y="574.45" width="146.68" height="117.02" rx="6.77" ry="6.77"/><path class="cls-25" d="M705,624.85a21.32,21.32,0,1,0-31.14,18.92v23.05h19.63V643.77A21.31,21.31,0,0,0,705,624.85Z"/><path class="cls-28" d="M743,574.45H707.72a219.53,219.53,0,0,1-34.91,66.34c-14.17,18.42-36.49,41.78-61.73,41.29a14,14,0,0,0,13.21,9.38H743a14,14,0,0,0,14-14v-89A14,14,0,0,0,743,574.45Z"/><path class="cls-29" d="M697.81,494.57l2.8,9.67a3.51,3.51,0,0,0,4.56,3c1.45-.07,3-0.19,4.1-1.17a4.37,4.37,0,0,0,1.2-2.18,9.48,9.48,0,0,0-1.34-7,28.15,28.15,0,0,0-4.78-5.55"/><path class="cls-29" d="M871.49,383.32a77.2,77.2,0,0,1,4.59-13.11c1,1.27.89,3.06,0.72,4.66a10.56,10.56,0,0,1,5.14-5.43,1.11,1.11,0,0,1,.88-0.14,1.13,1.13,0,0,1,.53.83,14.86,14.86,0,0,1-8.87,17.44"/><path class="cls-4" d="M776.6,683.67c8.21,2,15.08,4.42,18.85,7.8H763.81l0.61-7.34Z"/><path class="cls-4" d="M737.9,683.67c-8.21,2-15.08,4.42-18.85,7.8H750.7l-0.61-7.34Z"/><path class="cls-30" d="M793.24,499.29L778.32,685a50.82,50.82,0,0,1-7,1.27,31.28,31.28,0,0,1-4.1-.57c-1.73-.35-3.24-0.7-3.24-0.7l-5.58-140.35h-7L750,685a30.37,30.37,0,0,1-7.61,1.11,40.7,40.7,0,0,1-8.25-1.11L716.27,494.54Z"/><g class="cls-31"><path class="cls-32" d="M764.64,497.52l-26.28-1.62c-0.32,34.2,4.82,156.4,5.35,190.13A31.44,31.44,0,0,0,750,685l1.34-140.35h7L764,685s1.51,0.35,3.24.7l1.54,0.26C768.74,647.71,765.29,513.24,764.64,497.52Z"/></g><path class="cls-33" d="M743.08,365.93a1.56,1.56,0,0,1,.1.25c1.13,6.14,7,9.29,13.43,11.07,5.27,1.45,6.49,2.09,10.71-1,8.77-6.33,16.57-14.74,14-26.33a1.69,1.69,0,0,1,.21-1.28c-2.49-4.46-7.1-6.61-12.2-11.23-17.15-15.54-37.54,6.05-29.82,14.95C740.8,353.83,743.09,360.11,743.08,365.93Z"/><path class="cls-34" d="M801.59,440.27C801.59,405,787,383,759,383s-42.66,29.51-42.66,64.81L712,550.64s65.22,12.93,90,.83Z"/><path class="cls-35" d="M801.59,440.27a92.72,92.72,0,0,0-3.4-26.3c-2.48,38.41-5.85,140.67-63,140.26,21.25,2.66,51.68,4.66,66.89-2.77Z"/><path class="cls-29" d="M773.37,361.79c-1-6.94-7.24-13.91-14.79-10.3-4.85,2.32-9.87,2.58-13.83.47-0.12,1.34-.28,3.29-0.43,5.33-0.84-1.53-2.24-1.77-2.66.15s0.11,5.87,2.32,6.59c0,0.36,0,.72,0,1,0.1,5.19,2.22,13.45,10.65,15.43,0.45,1.83.3,2.43-.23,4.87,0.47,1.63,7,2.68,9.18.76a38.63,38.63,0,0,1-.17-5.4c5-.8,9.14-5.71,11-12C781.95,364.47,776.57,356.78,773.37,361.79Z"/><path class="cls-36" d="M773.37,361.79a15.47,15.47,0,0,0-3.42-7.57c0.21,12.07-4.93,23.29-16.59,25.88,0.41,0.14.82,0.27,1.27,0.37,0.45,1.83.3,2.43-.23,4.87,0.47,1.63,7,2.68,9.18.76a38.63,38.63,0,0,1-.17-5.4c5-.8,9.14-5.71,11-12C781.95,364.47,776.57,356.78,773.37,361.79Z"/><path class="cls-34" d="M741.09,387.87c-32.79,15.85-65.21,66.93-61.64,78.19s12.64,24.44,18.73,33.25l11.91-2.1S696,476.06,696.47,463.16C696.78,455.2,728,429,728,429Z"/><path class="cls-34" d="M781.49,389.67c5.14,3.69,48,29.36,71.54,6.69,17-16.37,18.73-19.54,18.73-19.54l5.84,10.34s-26.63,47-58.84,41.56-33-7.11-33-7.11Z"/><path class="cls-22" d="M251.86,590.76a51.58,51.58,0,0,0-29.29,22.14h87a51.59,51.59,0,0,0-29.29-22.14V377.52H251.86V381h-30.4v25.67h30.4v6.11h-30.4v25.67h30.4V590.76Z"/><rect class="cls-37" x="240.09" y="380.99" width="36.47" height="25.67" transform="translate(516.65 787.66) rotate(180)"/><rect class="cls-37" x="240.09" y="412.77" width="36.47" height="25.67" transform="translate(516.65 851.21) rotate(180)"/><rect class="cls-38" x="267.26" y="380.99" width="9.3" height="25.67" transform="translate(543.82 787.66) rotate(180)"/><rect class="cls-38" x="267.26" y="412.77" width="9.3" height="25.67" transform="translate(543.82 851.21) rotate(180)"/><rect class="cls-37" x="270.49" y="377.52" width="28.47" height="223.1" transform="translate(569.46 978.13) rotate(180)"/><rect class="cls-25" x="282.55" y="385.2" width="4.35" height="223.1" rx="0.82" ry="0.82" transform="translate(569.46 993.49) rotate(180)"/><path class="cls-37" d="M233.36,640.1a51.37,51.37,0,1,1,51.37,51.37A51.42,51.42,0,0,1,233.36,640.1Zm26.49,0a24.88,24.88,0,1,0,24.88-24.88A24.91,24.91,0,0,0,259.85,640.1Z"/><path class="cls-38" d="M257.43,640.1a27.3,27.3,0,1,0,27.3-27.3A27.33,27.33,0,0,0,257.43,640.1Zm2.42,0A24.88,24.88,0,1,1,284.73,665,24.91,24.91,0,0,1,259.85,640.1Z"/><path class="cls-22" d="M471.53,425.37c-9,8-41.49,42-47.44,23.49-4.71-14.66-14.6-34.82-20.39-41.58a27.67,27.67,0,0,0-14.05-8.62v-2.34c5.63,0,14.44-1.13,14.44-21.42,0-6.13-.58-10.18-1.64-12.83,1.68-1.69,1.57-5,.38-7-1.57-2.6-5.72-4.85-8.47-6.07-6.51-2.89-15-4.23-21.27-.18a27,27,0,0,0-7.86-6.87,19,19,0,0,0-8.58-2.76c-6-.12-11.22,4.49-14,9.81a21.93,21.93,0,0,0-2.38,14.13,15.78,15.78,0,0,0,8.4,11.29,7.53,7.53,0,0,0,4.15.82,8.6,8.6,0,0,0,4.78-2.89c3.21-3.33,3.75-7.31,6.11-10.92a4,4,0,0,1,1.31-1.23,26,26,0,0,0-1.1,7.23c-0.05,7,2.4,13.81,5.64,20a11.58,11.58,0,0,0,3.35,4.38c1.47,1,5.26,2,6.81,1l-0.65,5a36,36,0,0,0-13.2,3.86h0c-24.41,5.61-42.82,65.55-75.48,61.57v0.08c-4-1.11-8.33-1.42-8.56,2.47-0.45,7.61,4.28,8.59,8.56,8v0.16c13.67,0,31.79-3.94,47.71-21.54-8.78,49.5-5.27,114.33-5.27,114.33,2.35,0.34,4.7.65,7,.94l4,45.36h20.79l0.05-43.28c4.2,0.17,8.37.26,12.5,0.23l0.49,43H401.8l4.66-45.14c4.27-.6,8.5-1.32,12.68-2.2-0.86-27.23-1-62.82-2.78-93.65a10,10,0,0,0,4.47,2.56c2.83,0.7,15,14.78,23.82,4.08,8.91-10.86,27.52-33.26,34.34-44.81C477.51,430,473.58,428.9,471.53,425.37Z"/><polygon class="cls-39" points="392.39 391.01 391.02 401.52 402.07 402.73 402.07 391.65 392.39 391.01"/><path class="cls-40" d="M307.25,467.85s-14.62-7.21-15,0c-0.81,13.65,15,6,15,6v-6Z"/><path class="cls-29" d="M309.32,465.78s-14.62-7.21-15.05,0c-0.81,13.65,15.05,6,15.05,6v-6Z"/><path class="cls-29" d="M382.42,374.89c0,9.55,9.86,21.43,19.41,21.43,5.62,0,14.69-.84,14.69-21.43,0-21.64-7.26-17.29-16.81-17.29A17.29,17.29,0,0,0,382.42,374.89Z"/><path class="cls-36" d="M397,382.92c0-8,1.06-17.57,4-25.34l-1.27,0a17.29,17.29,0,0,0-17.29,17.29c0,9.37,9.49,20.95,18.86,21.39C398.23,392.77,396.93,388.37,397,382.92Z"/><path class="cls-41" d="M412.86,363.32c-1.53.23-3.16-.5-4.6,0.08-2.3.93-2.45,4.43-4.57,5.72-2.64,1.61-6.63-1.18-8.94.89-1.36,1.22-1.2,3.36-1.06,5.19a39,39,0,0,1-1.58,14.35c-0.33,1.08,1.09,3,.24,3.73-1.41,1.22-5.48.15-7-.92a11.69,11.69,0,0,1-3.35-4.43c-3.24-6.27-5.7-13.15-5.64-20.22s2.94-14.38,8.66-18.47c6.29-4.5,15.09-3.14,21.78-.14,2.75,1.23,6.89,3.51,8.47,6.13S416.56,362.77,412.86,363.32Z"/><path class="cls-42" d="M411,351.39c-2.25,2-4.52,5.65-6.22,6.84-2.35,1.64-5.16,2-7.83,2.79-12.3,3.78-13.15,22.63-7.78,32.7a4.15,4.15,0,0,0,3.15-.44c0.85-.73-0.57-2.66-0.24-3.73a39,39,0,0,0,1.58-14.35c-0.14-1.83-.3-4,1.06-5.19,2.31-2.07,6.3.72,8.94-.89,2.12-1.29,2.27-4.79,4.57-5.72,1.44-.58,3.07.15,4.6-0.08,3.7-.55,3.94-5.5,2.39-8.08A13.23,13.23,0,0,0,411,351.39Z"/><path class="cls-41" d="M377.66,342a18.85,18.85,0,0,0-8.58-2.79c-6-.12-11.22,4.53-14,9.91a22.35,22.35,0,0,0-2.38,14.27,15.93,15.93,0,0,0,8.4,11.41,7.46,7.46,0,0,0,4.15.83,8.59,8.59,0,0,0,4.78-2.92c3.21-3.37,3.75-7.39,6.11-11,1.9-2.95,6.08-1.74,8.87-3.66C392.1,353.12,382,344.4,377.66,342Z"/><path class="cls-42" d="M380.86,355c-1.29-.66-2.29-1.87-3.57-2.51-1.82-2-11.16-3-13.11,10a15.45,15.45,0,0,1-6.64,9.83,13.79,13.79,0,0,0,3.56,2.49,7.46,7.46,0,0,0,4.15.83,8.59,8.59,0,0,0,4.78-2.92c3.21-3.37,3.75-7.39,6.11-11,1.9-2.95,6.08-1.74,8.87-3.66a5.66,5.66,0,0,0,2-2.28A7.52,7.52,0,0,1,380.86,355Z"/><path class="cls-25" d="M374.7,683.67c8.21,2,15.08,4.42,18.85,7.8H361.9l0.61-7.34Z"/><path class="cls-25" d="M403.06,683.67c8.21,2,15.08,4.42,18.85,7.8H390.27l0.61-7.34Z"/><path class="cls-40" d="M485.1,418.29a4.14,4.14,0,0,0-.66-0.3c-1.18-.32-2.29.5-3.27,1.23a54.6,54.6,0,0,0-6.42,5.54h0a7.65,7.65,0,0,0-1.23,1.36,5.12,5.12,0,0,0-.38,5.49,4.65,4.65,0,0,0,3.78,2.22,9.79,9.79,0,0,0,6.64-2.9c1.47-1.72,1.35-3.64.29-5.64a4.57,4.57,0,0,0-2.91-2.4,24.63,24.63,0,0,0,3.78-2.78,2.2,2.2,0,0,0,.67-0.86A0.8,0.8,0,0,0,485.1,418.29Z"/><path class="cls-29" d="M484.35,422.87c1.07,2,1.19,3.92-.29,5.64a9.79,9.79,0,0,1-6.64,2.9,4.65,4.65,0,0,1-3.78-2.22,5.12,5.12,0,0,1,.38-5.49C476.32,420.37,482,418.5,484.35,422.87Z"/><path class="cls-29" d="M480.63,421a24.62,24.62,0,0,0,4.59-3.29,2.2,2.2,0,0,0,.67-0.86,0.8,0.8,0,0,0-.3-1,4.14,4.14,0,0,0-.66-0.3c-1.18-.32-2.29.5-3.27,1.23a54.58,54.58,0,0,0-6.42,5.54C476.38,422.68,479.58,421.56,480.63,421Z"/><path class="cls-25" d="M440.33,450c11.74-7.81,21-16.18,31.66-25.61a1.6,1.6,0,0,1,2.29.16c2,2.32,5.13,5.77,4.8,7.22a4.94,4.94,0,0,1-1.32,2.08l-29.77,33a32.52,32.52,0,0,1-6.4,5.93,11,11,0,0,1-8.33,1.76c-4.78-1.18-7.45-6.1-10-10.27-12.82-20.59-10.71-28-9.14-34.38,1.09-4.41,2.47-8.76,3.26-13.25,0.25-1.42-3.14-9.29-1.2-9.39,5.79,6.76,14.47,27.37,20.39,41.58A2.6,2.6,0,0,0,440.33,450Z"/><path class="cls-43" d="M347.73,515.88l14.92,169.2a55.28,55.28,0,0,0,7,1.16,34.16,34.16,0,0,0,4.1-.52c1.73-.32,3.24-0.64,3.24-0.64l0.15-127.9h12.34l1.45,127.9a33.09,33.09,0,0,0,7.61,1,44.4,44.4,0,0,0,8.25-1l17.91-173.52Z"/><path class="cls-44" d="M386.11,528.56c0.09,5.73-.31,10.9,1.69,16.11A10.08,10.08,0,0,0,398,551.28c7.39-.15,12.51-4.18,12.54-11.64,0-1,.48-11.07,1-11.09H386.11Z"/><path class="cls-44" d="M351.07,528.57c0.09,5.73-.16,10.9,1.25,16.11,1.11,4.07,3.59,6.74,7.12,6.66,5.14-.12,8-5.83,8.68-11.58,0.11-.95.28-11.07,0.62-11.09Z"/><path class="cls-45" d="M377.14,557.16h0.05a0.31,0.31,0,0,0,.25-0.36c-2-11.5-.62-33.5-0.61-33.72a0.31,0.31,0,0,0-.09-0.24,0.33,0.33,0,0,0-.23-0.09c-0.2,0-19.91.93-28.18-1.17a0.31,0.31,0,0,0-.15.6c7.74,2,25.34,1.31,28,1.2-0.16,2.86-1.22,22.75.63,33.52A0.31,0.31,0,0,0,377.14,557.16Z"/><path class="cls-45" d="M379.61,557.16h0a0.31,0.31,0,0,0,.28-0.34c-1.17-13.44-1.31-24-.43-33.33,11.77-.11,26-1.65,42.45-4.59a0.31,0.31,0,0,0,.25-0.36,0.3,0.3,0,0,0-.36-0.25c-16.5,3-30.84,4.49-42.62,4.58a0.31,0.31,0,0,0-.3.28c-0.91,9.39-.78,20.11.4,33.72A0.31,0.31,0,0,0,379.61,557.16Z"/><g class="cls-46"><path class="cls-47" d="M373.76,685.72c1.73-.32,3.24-0.64,3.24-0.64l0.15-127.9h1a0.75,0.75,0,0,0-1-.32c-2.42,1.09-3.56,2.77-5.06,4.74a9.81,9.81,0,0,0-1.93,5.56C369.17,606.58,371.47,636.59,373.76,685.72Z"/></g><path class="cls-45" d="M405.52,681.52a0.31,0.31,0,0,1-.27-0.34l0.26-2.54a0.3,0.3,0,0,1,.34-0.28,0.31,0.31,0,0,1,.27.34l-0.26,2.54a0.31,0.31,0,0,1-.31.28h0Zm0.76-7.45a0.31,0.31,0,0,1-.28-0.34l0.5-4.91a0.29,0.29,0,0,1,.34-0.27,0.31,0.31,0,0,1,.27.34l-0.5,4.91a0.31,0.31,0,0,1-.31.28h0Zm1-9.83a0.31,0.31,0,0,1-.27-0.34l0.5-4.91a0.3,0.3,0,0,1,.34-0.27,0.31,0.31,0,0,1,.27.34l-0.5,4.91a0.31,0.31,0,0,1-.31.28h0Zm1-9.83a0.31,0.31,0,0,1-.27-0.34l0.5-4.92a0.29,0.29,0,0,1,.34-0.28,0.31,0.31,0,0,1,.28.34l-0.5,4.92a0.31,0.31,0,0,1-.31.28h0Zm1-9.83a0.31,0.31,0,0,1-.27-0.34l0.5-4.92a0.29,0.29,0,0,1,.34-0.27,0.31,0.31,0,0,1,.27.34l-0.5,4.92a0.31,0.31,0,0,1-.31.28h0Zm1-9.83a0.31,0.31,0,0,1-.27-0.34l0.5-4.91a0.28,0.28,0,0,1,.34-0.27,0.31,0.31,0,0,1,.28.34l-0.5,4.91a0.31,0.31,0,0,1-.31.28h0Zm1-9.83a0.31,0.31,0,0,1-.28-0.34l0.5-4.91a0.3,0.3,0,0,1,.34-0.27,0.31,0.31,0,0,1,.27.34l-0.5,4.91a0.31,0.31,0,0,1-.31.28h0Zm1-9.83a0.31,0.31,0,0,1-.28-0.34l0.5-4.91a0.29,0.29,0,0,1,.34-0.28,0.31,0.31,0,0,1,.28.34l-0.5,4.91a0.31,0.31,0,0,1-.31.28h0Zm1-9.83a0.31,0.31,0,0,1-.28-0.34l0.5-4.92a0.29,0.29,0,0,1,.34-0.27,0.31,0.31,0,0,1,.27.34l-0.5,4.92a0.31,0.31,0,0,1-.31.28h0Zm1-9.83a0.31,0.31,0,0,1-.27-0.34l0.5-4.92a0.31,0.31,0,0,1,.31-0.28h0a0.31,0.31,0,0,1,.28.34l-0.5,4.92a0.31,0.31,0,0,1-.31.28h0Zm1-9.83a0.31,0.31,0,0,1-.28-0.34l0.5-4.91a0.29,0.29,0,0,1,.34-0.27,0.31,0.31,0,0,1,.27.34l-0.5,4.91a0.31,0.31,0,0,1-.31.28h0Zm1-9.83a0.31,0.31,0,0,1-.27-0.34l0.5-4.91a0.3,0.3,0,0,1,.34-0.28,0.31,0.31,0,0,1,.27.34l-0.5,4.91a0.31,0.31,0,0,1-.31.28h0Zm1-9.83a0.31,0.31,0,0,1-.27-0.34l0.5-4.92a0.29,0.29,0,0,1,.34-0.27,0.31,0.31,0,0,1,.27.34l-0.5,4.92a0.31,0.31,0,0,1-.31.28h0Zm1-9.83a0.31,0.31,0,0,1-.27-0.34l0.5-4.92a0.3,0.3,0,0,1,.34-0.27,0.31,0.31,0,0,1,.27.34l-0.5,4.92a0.31,0.31,0,0,1-.31.28h0Zm1-9.83a0.31,0.31,0,0,1-.27-0.34l0.5-4.91a0.29,0.29,0,0,1,.34-0.27,0.31,0.31,0,0,1,.28.34l-0.5,4.91a0.31,0.31,0,0,1-.31.28h0Zm1-9.83a0.31,0.31,0,0,1-.28-0.34l0.5-4.91a0.29,0.29,0,0,1,.34-0.28,0.31,0.31,0,0,1,.27.34l-0.5,4.91a0.31,0.31,0,0,1-.31.28h0Zm1-9.83a0.31,0.31,0,0,1-.28-0.34l0.5-4.91a0.28,0.28,0,0,1,.34-0.28,0.31,0.31,0,0,1,.28.34l-0.5,4.91a0.31,0.31,0,0,1-.31.28h0Z"/><path class="cls-25" d="M378.3,401.66c-24.41,5.61-42.82,65.55-75.48,61.57V473.9c15.28,0,36.15-4.88,53.26-28.33C380.82,411.67,378.3,401.66,378.3,401.66Z"/><path class="cls-48" d="M378.3,401.66c-24.41,5.61-42.82,65.55-75.48,61.57V473.9c15.28,0,36.15-4.88,53.26-28.33C380.82,411.67,378.3,401.66,378.3,401.66Z"/><path class="cls-25" d="M416.12,407.27c15,17.18,13.74,104.28,15.45,158.37-27,5.67-56,5.43-86.31,1,0,0-4.72-87.16,10.48-136.52C366,396.66,400.3,389.15,416.12,407.27Z"/><path class="cls-48" d="M365.93,522.15a191.78,191.78,0,0,1-8.08-56.63c0-16.17.45-33.74,4.69-49.7a53.24,53.24,0,0,0-6.81,14.36c-15.19,49.37-10.48,136.52-10.48,136.52a295.74,295.74,0,0,0,44.88,3.24C379.13,556,371.23,539.59,365.93,522.15Z"/><path class="cls-14" d="M127.43,380.07c2.2-.12,17.22-11.24,23-15a15.81,15.81,0,0,0,4.42-3.73,5.57,5.57,0,0,0,.84-5.48c-1-2.18-2.73-4.35-7-4.34-7.48,0-10.08,2.47-13.72,6.24C122.91,370.21,127.43,380.07,127.43,380.07Z"/><path class="cls-14" d="M194.77,424.95c6.54,2.94,13.53,5.87,20.64,5,2.76-.35,5.77-1.61,6.69-4.23,0.78-2.24-.3-4.81-2.08-6.39a14.78,14.78,0,0,0-6.43-2.9c-8.71-2.12-20.93-.95-29.55,1.5C184,417.88,190.87,423.19,194.77,424.95Z"/><path class="cls-14" d="M237.85,328.34c-2.92-1.84-6.14-4.31-6.14-7.76s3.61-6.1,7.07-6.11,6.67,1.87,9.27,4.15c11,9.66,9.63,20.68,9.63,20.68S241.1,330.4,237.85,328.34Z"/><path class="cls-14" d="M246.53,298.87c-2.56-1.1-5.2-2.43-6.7-4.77a4.56,4.56,0,0,1-.7-3.87c0.75-2.14,2.1-4.06,7.49-3.09,17.08,3.1,20.8,14.8,20.8,14.8S251.06,300.82,246.53,298.87Z"/><path class="cls-14" d="M296.58,324.75a27,27,0,0,0,18.25-9.36,16.72,16.72,0,0,0,3.67-6.79,7.43,7.43,0,0,0-2-7.14c-2.4-2.07-6.2-1.74-8.85,0s-4.34,4.59-5.71,7.44C300.09,312.71,296.58,324.75,296.58,324.75Z"/><path class="cls-49" d="M174.23,574.6l-49.77-43.88c-8.84-7.79-17.87-15.82-23.47-26.19-12-22.3-5.1-51.27,11.16-70.7s40.07-30.91,64-39.26,48.83-14.21,71.63-25.26c14.3-6.93,28.68-17.25,32.6-32.65a32.58,32.58,0,0,0-29.63-40.56"/><path class="cls-49" d="M308.17,308.85c-4.53,13.92-22.19,22.39-30.25,34.45"/><path class="cls-49" d="M244.77,324.86c3.48,3.67,7.64,6.71,10.68,10.75,6.41,8.55,6.95,22.44-2.54,31.05"/><path class="cls-49" d="M155.42,402.79c14.64,11.28,33.88,18.8,52.34,19.51"/><path class="cls-49" d="M121.91,423.34c-6.74-19.87.6-43.68,17.37-56.31"/><path class="cls-14" d="M702,150.34c-0.79-2.46-.75-5.48,1.06-7.32a5.37,5.37,0,0,1,5.72-1.28c14.51,6.4,12.94,29.11,12.94,29.11S707.94,168.85,702,150.34Z"/><path class="cls-14" d="M701.64,192.88c-9.39,17,24,15.72,36,5.7C737.64,198.57,709.72,178.23,701.64,192.88Z"/><path class="cls-14" d="M743.82,151.63c-2.27-3.11-3.07-7.75-.6-10.71,1.84-2.2,5-2.88,7.85-2.34a18.38,18.38,0,0,1,8.82,5.39c11,13.7,5.82,27.11,5.82,27.11S747.53,156.73,743.82,151.63Z"/><path class="cls-14" d="M876.32,193.77c-0.81-2.65-.62-5.89,1.43-7.74a6.55,6.55,0,0,1,4.88-1.46,14.82,14.82,0,0,1,5,1.49,16,16,0,0,1,7.68,7.66c4.13,8.53,1.32,19.08,1.32,19.08S878.34,200.37,876.32,193.77Z"/><path class="cls-14" d="M834.64,225a21.38,21.38,0,0,0-22.12-3.57,11.34,11.34,0,0,0-4.73,3.56c-2.64,3.66-1.71,9,1,12.58s6.88,5.76,11,7.63c7.43,3.38,18.95,4.06,26.85,6.08C846.63,251.27,846.6,235.54,834.64,225Z"/><path class="cls-49" d="M712.39,154c4.91,16.12,18.8,28.28,34.27,34.86s32.5,8.31,49.27,9.4,33.73,1.63,49.94,6c15.8,4.3,31.54,13.26,38.32,28.21,8.25,18.19.95,39.95-10.64,56.21s-27.19,29.37-38.4,45.89c-5.15,7.59-9.45,16.47-8.41,25.59,1.39,12.16,11.6,21.11,21.09,28.8"/><path class="cls-49" d="M751,148.08c11.11,12.33,20,31.61,22.15,48.08"/><path class="cls-49" d="M713.67,195.7c6.35,1.69,12.79,3.39,19.36,3.41s14.19-3.63,18.91-8.22"/><path class="cls-49" d="M887.19,194.77A33,33,0,0,1,897.06,217c0.31,8.29-4.28,18.34-9.78,24.54"/><path class="cls-49" d="M824.92,232.41c11.89,11,22.24,19.85,35.45,29.18,6,4.26,18,9.71,23.32,8.31"/></g></g></svg>